<?xml version="1.0" standalone="no"?>
<!DOCTYPE svg PUBLIC "-//W3C//DTD SVG 20010904//EN"
 "http://www.w3.org/TR/2001/REC-SVG-20010904/DTD/svg10.dtd">
<svg version="1.0" xmlns="http://www.w3.org/2000/svg"
 width="1456.000000pt" height="1456.000000pt" viewBox="0 0 1456.000000 1456.000000"
 preserveAspectRatio="xMidYMid meet">
<metadata>
Created by potrace 1.14, written by Peter Selinger 2001-2017
</metadata>
<g transform="translate(0.000000,1456.000000) scale(0.100000,-0.100000)"
fill="#000000" stroke="none">
<path d="M7228 14545 c-2 -1 -25 -5 -53 -8 -218 -25 -445 -187 -548 -392 -56
-113 -69 -171 -73 -325 l-3 -145 -533 -308 c-293 -169 -612 -354 -708 -409
-96 -56 -229 -133 -295 -170 -66 -38 -127 -73 -135 -79 -8 -5 -98 -57 -200
-115 -102 -59 -228 -131 -280 -161 -52 -31 -122 -71 -155 -90 -33 -19 -67 -38
-75 -43 -34 -20 -127 -74 -158 -92 -18 -10 -92 -52 -163 -93 -71 -41 -187
-109 -258 -150 -71 -41 -145 -83 -163 -93 -18 -11 -132 -77 -253 -147 -121
-70 -238 -137 -260 -150 -22 -12 -96 -55 -165 -95 -262 -152 -645 -373 -650
-376 -3 -1 -21 10 -39 26 -43 38 -180 105 -256 125 -142 37 -327 24 -464 -33
-226 -95 -400 -310 -438 -541 -14 -81 -8 -251 10 -320 56 -209 214 -395 409
-481 l56 -25 0 -2573 0 -2573 -75 -37 c-351 -175 -505 -585 -354 -942 90 -212
276 -372 496 -426 17 -4 37 -9 45 -11 40 -11 214 -10 271 1 89 17 192 61 274
116 l71 47 34 -22 c27 -18 466 -271 666 -385 17 -10 161 -93 320 -185 159 -93
334 -194 389 -225 55 -32 199 -115 320 -185 121 -71 249 -145 285 -165 36 -20
76 -43 90 -52 14 -8 131 -76 260 -151 129 -74 564 -325 965 -557 772 -447 777
-450 842 -486 222 -125 278 -163 276 -186 -4 -54 -3 -195 2 -223 19 -94 30
-129 70 -210 178 -365 615 -512 980 -331 179 90 304 233 370 428 26 74 29 98
31 223 l1 139 39 23 c22 13 59 34 84 48 25 14 52 30 60 35 8 6 125 73 260 150
135 77 252 144 260 150 31 19 215 125 225 129 5 2 21 12 35 21 14 9 48 30 75
45 63 35 160 90 203 116 39 23 410 237 462 266 19 11 85 49 146 85 61 36 117
68 125 71 8 4 28 16 45 26 16 10 163 95 325 189 161 93 310 179 329 191 19 11
42 24 50 28 8 3 47 25 85 48 63 38 402 233 450 259 11 6 31 18 45 27 22 14
436 253 530 307 19 10 107 61 195 112 372 216 415 240 419 240 3 0 36 -20 73
-44 143 -92 267 -127 433 -121 110 3 116 4 196 28 138 41 289 149 376 268 131
178 172 448 102 659 -67 198 -226 373 -406 446 l-48 19 0 2577 0 2576 33 11
c112 40 279 181 346 293 146 249 144 542 -4 774 -71 110 -215 238 -311 274
-16 6 -42 18 -59 25 -106 49 -330 54 -460 11 -88 -30 -200 -87 -228 -117 -24
-26 -42 -24 -99 11 -26 17 -51 30 -53 30 -3 0 -22 11 -43 24 -33 20 -203 120
-257 150 -46 26 -241 138 -255 147 -13 8 -123 72 -205 119 -82 48 -164 94
-195 112 -73 42 -509 293 -595 343 -49 29 -337 196 -640 370 -493 285 -1211
700 -1290 745 -16 10 -73 42 -125 72 -52 30 -171 99 -265 153 -386 224 -458
265 -464 265 -3 0 -6 60 -6 132 0 143 -13 211 -60 314 -113 247 -364 416 -637
428 -42 2 -78 2 -80 1z m154 -512 c80 -32 141 -133 140 -228 -4 -208 -261
-316 -410 -172 -57 55 -75 100 -74 188 1 173 174 280 344 212z m-247 -939 c49
-12 240 -11 286 1 l50 13 34 -46 c18 -26 274 -391 569 -812 294 -421 542 -774
550 -785 8 -11 55 -78 105 -150 77 -111 88 -132 77 -145 -22 -24 -77 -140 -93
-194 -24 -79 -25 -86 -29 -191 -11 -285 144 -546 400 -674 119 -59 190 -75
331 -75 102 0 133 4 205 27 231 73 409 244 485 467 39 114 47 213 29 339 -39
272 -220 492 -482 585 -118 42 -271 52 -385 25 -44 -10 -50 -9 -62 7 -10 15
-148 211 -445 634 -13 18 -438 625 -462 660 -10 14 -35 50 -55 80 -21 30 -40
57 -43 60 -6 5 -71 97 -84 118 -4 6 8 4 26 -7 18 -10 103 -59 188 -109 137
-79 364 -209 458 -263 18 -11 103 -60 188 -110 85 -49 176 -102 202 -116 26
-14 101 -57 167 -96 66 -38 136 -79 155 -90 19 -10 181 -104 360 -207 179
-103 341 -197 360 -207 19 -11 134 -78 255 -148 121 -70 236 -137 255 -148 19
-10 134 -77 255 -147 121 -70 240 -138 265 -152 25 -14 123 -71 219 -127 96
-55 176 -101 178 -101 2 0 29 -16 59 -35 30 -19 56 -35 59 -35 3 0 33 -17 67
-38 35 -21 86 -51 113 -66 139 -78 261 -150 266 -158 3 -5 3 -26 -1 -46 -6
-38 -4 -187 4 -207 4 -11 -88 -65 -1032 -609 -68 -39 -137 -79 -155 -90 -49
-28 -688 -397 -722 -416 -16 -10 -262 -151 -545 -315 -696 -402 -839 -485
-882 -509 -20 -12 -130 -75 -244 -141 -113 -66 -225 -131 -248 -144 -22 -13
-172 -99 -333 -192 -264 -153 -323 -180 -323 -150 0 20 -210 122 -282 137
-216 44 -408 6 -591 -117 l-57 -39 -548 316 c-301 174 -560 324 -577 334 -16
9 -192 110 -390 225 -198 114 -373 215 -390 225 -16 9 -120 69 -230 133 -110
63 -328 189 -485 279 -612 353 -1137 657 -1170 677 -19 11 -42 24 -50 28 -8 4
-59 33 -113 65 -53 32 -100 58 -102 58 -3 0 -22 11 -43 24 -20 13 -56 35 -78
48 -267 151 -284 162 -278 180 7 25 8 189 1 213 -9 26 0 37 50 66 45 26 616
357 645 374 9 6 29 17 45 26 27 15 924 533 982 567 39 23 246 142 291 167 19
11 58 33 85 50 28 16 66 39 86 50 62 35 323 186 339 195 8 6 98 58 200 116
102 58 226 130 275 159 50 29 167 96 260 150 94 54 213 123 265 154 52 30 109
63 125 72 17 9 123 71 237 137 115 66 205 115 201 109 -3 -7 -25 -39 -48 -72
-23 -33 -62 -89 -87 -125 -35 -50 -681 -973 -728 -1040 -6 -8 -60 -86 -121
-173 -105 -149 -113 -158 -138 -152 -150 38 -326 20 -475 -49 -469 -216 -571
-833 -197 -1191 146 -139 322 -206 530 -200 393 10 705 335 703 732 -1 127
-26 226 -87 341 l-44 83 74 107 c41 59 80 115 87 126 7 10 20 28 29 40 9 11
41 57 71 101 72 104 443 635 460 657 7 10 56 79 108 154 52 75 131 188 175
250 44 63 138 197 209 299 98 141 133 184 145 180 9 -4 25 -9 36 -11z m-1891
-2113 c45 -19 97 -70 123 -118 25 -45 22 -159 -5 -210 -45 -86 -120 -133 -215
-134 -135 -2 -241 105 -241 241 1 182 173 295 338 221z m4278 -1 c52 -27 76
-49 105 -97 71 -121 17 -284 -114 -344 -92 -42 -208 -17 -274 59 -80 90 -85
210 -14 312 60 87 199 120 297 70z m-7821 -205 c64 -23 104 -59 134 -119 81
-166 -31 -349 -215 -349 -220 -1 -323 259 -165 415 64 63 159 83 246 53z
m11335 -9 c203 -95 183 -389 -31 -451 -176 -51 -345 104 -305 280 13 56 23 77
58 117 68 76 183 98 278 54z m-10625 -957 c173 -100 328 -189 345 -199 16 -10
149 -86 295 -170 145 -84 278 -161 294 -170 159 -90 446 -256 467 -271 15 -11
29 -19 32 -19 2 0 98 -54 213 -121 114 -67 226 -131 248 -144 22 -12 123 -71
225 -130 102 -59 203 -117 225 -130 57 -31 286 -164 378 -219 43 -25 80 -46
81 -46 2 0 66 -37 142 -81 150 -89 151 -89 299 -174 153 -88 156 -90 318 -183
84 -49 233 -135 332 -191 99 -57 192 -112 207 -122 15 -11 32 -19 38 -19 6 0
8 -11 5 -27 -12 -60 -6 -216 12 -283 3 -14 7 -29 9 -35 11 -47 53 -137 93
-197 75 -115 206 -224 326 -272 l40 -16 -1 -2573 c-1 -1414 -2 -2575 -3 -2579
0 -5 -6 -8 -12 -8 -19 0 -82 -32 -151 -77 -64 -43 -67 -44 -96 -29 -16 8 -138
78 -272 156 -133 77 -260 151 -283 164 -23 12 -143 82 -267 153 -124 72 -238
138 -255 147 -16 9 -46 26 -65 37 -19 12 -136 79 -260 150 -124 71 -232 134
-240 139 -8 5 -46 27 -85 49 -38 23 -89 52 -113 66 -24 14 -163 95 -310 179
-147 85 -334 192 -415 240 -82 47 -153 86 -158 86 -5 0 -9 5 -9 10 0 6 -4 10
-10 10 -5 0 -89 46 -187 103 -228 132 -754 436 -813 469 -25 14 -108 62 -185
107 l-140 82 95 -6 c52 -4 109 -8 125 -10 17 -1 66 -6 110 -10 44 -3 94 -8
110 -9 17 -2 68 -6 115 -10 47 -4 101 -9 120 -11 19 -2 67 -7 105 -10 39 -3
90 -7 115 -9 25 -2 79 -7 120 -10 41 -4 98 -9 125 -12 99 -9 141 -13 215 -19
41 -3 95 -8 120 -10 88 -9 156 -15 235 -21 44 -4 94 -8 110 -9 17 -2 44 -4 61
-4 29 -1 33 -6 59 -73 83 -213 230 -358 442 -439 107 -40 282 -51 403 -24 303
68 522 305 570 615 8 56 6 180 -5 235 -51 267 -247 483 -510 565 -97 30 -256
38 -357 17 -197 -41 -377 -170 -478 -341 -41 -70 -46 -74 -75 -71 -16 2 -66 6
-110 10 -44 4 -96 8 -115 10 -19 2 -69 6 -110 9 -41 4 -95 9 -120 11 -25 2
-79 7 -120 10 -41 4 -91 8 -110 10 -19 2 -69 6 -110 10 -41 3 -95 8 -120 10
-25 3 -74 7 -110 10 -36 3 -92 8 -125 10 -33 3 -85 8 -115 10 -105 10 -155 15
-225 20 -38 3 -90 8 -115 10 -25 3 -79 7 -120 11 -41 3 -91 7 -110 9 -34 3
-162 15 -225 20 -112 9 -212 18 -224 20 -8 1 -22 24 -31 51 -32 94 -81 177
-151 261 l-28 32 19 38 c10 21 31 67 48 103 120 261 155 336 192 415 23 50 95
205 160 345 65 140 136 296 160 345 23 50 82 176 130 280 48 105 101 219 118
255 92 198 125 269 139 301 l15 36 76 1 c283 3 530 156 651 404 54 110 72 183
77 303 20 594 -640 960 -1136 630 -205 -136 -333 -386 -324 -630 3 -80 5 -98
22 -165 23 -89 99 -233 154 -291 41 -43 42 -38 -36 -205 -79 -171 -103 -224
-190 -408 -31 -65 -56 -119 -56 -121 0 -2 -27 -61 -61 -132 -33 -70 -69 -146
-79 -168 -10 -22 -73 -157 -140 -300 -66 -143 -140 -302 -163 -352 -23 -51
-44 -93 -47 -93 -4 0 -5 4671 -1 4716 1 6 27 23 59 37 31 14 82 43 112 65 30
23 56 41 56 42 1 0 143 -82 315 -181z m10212 79 l67 -32 0 -46 c1 -95 1 -4597
0 -4640 l-1 -45 -23 50 c-13 28 -41 88 -63 135 -22 47 -84 180 -138 295 -54
116 -124 266 -156 334 -33 68 -59 125 -59 127 0 1 -24 53 -54 116 -72 152
-108 230 -176 378 -32 69 -76 165 -99 213 -43 92 -46 103 -33 109 35 14 160
225 179 301 60 246 14 475 -131 660 -177 225 -475 328 -746 257 -262 -67 -455
-253 -532 -510 -29 -94 -32 -271 -7 -370 66 -261 268 -470 516 -534 86 -23
100 -24 189 -25 l80 -1 31 -67 c18 -38 99 -212 181 -388 82 -176 164 -351 182
-390 18 -38 57 -121 86 -183 30 -63 54 -115 54 -117 0 -2 25 -56 56 -121 31
-66 69 -146 84 -179 15 -33 47 -100 70 -150 23 -49 68 -146 100 -215 32 -69
76 -164 99 -212 23 -48 41 -91 41 -95 0 -5 -17 -28 -39 -52 -46 -52 -106 -156
-130 -229 -10 -29 -20 -55 -23 -58 -7 -7 -39 -11 -133 -19 -44 -3 -102 -8
-130 -10 -27 -3 -77 -7 -110 -10 -33 -3 -82 -7 -110 -10 -27 -2 -81 -7 -120
-10 -38 -3 -88 -8 -110 -10 -22 -2 -71 -7 -110 -10 -38 -3 -92 -7 -120 -10
-63 -6 -171 -15 -238 -20 -29 -2 -78 -7 -109 -10 -66 -6 -150 -13 -223 -19
-42 -4 -112 -10 -235 -21 -14 -1 -56 -5 -95 -9 -38 -3 -99 -8 -135 -11 -36 -2
-83 -7 -105 -9 -22 -3 -78 -8 -125 -11 -47 -4 -93 -9 -102 -10 -11 -3 -29 17
-57 65 -135 227 -379 366 -636 362 -49 -1 -101 -4 -114 -6 -273 -57 -473 -224
-568 -475 -33 -87 -38 -126 -37 -266 1 -171 38 -283 144 -427 87 -118 215
-206 378 -260 99 -33 295 -32 406 1 231 68 409 235 488 458 20 58 24 63 52 64
17 0 40 2 50 4 11 2 56 7 100 10 207 16 318 26 356 30 39 4 127 12 350 30 41
3 93 8 115 10 22 3 69 7 105 10 83 6 173 14 230 20 25 2 79 7 120 10 41 4 93
8 115 10 22 2 67 6 100 9 33 4 93 9 134 12 41 3 78 7 82 10 4 2 10 1 12 -3 3
-5 -58 -45 -136 -90 -78 -44 -272 -156 -432 -248 -159 -93 -344 -199 -410
-237 -66 -38 -127 -73 -135 -78 -16 -10 -215 -125 -283 -164 -23 -13 -82 -47
-132 -76 -49 -29 -108 -62 -130 -75 -46 -26 -287 -165 -333 -192 -17 -10 -91
-52 -164 -94 -73 -43 -275 -159 -448 -259 -173 -100 -331 -191 -350 -202 -19
-11 -71 -41 -115 -67 -44 -25 -88 -50 -97 -56 -10 -5 -91 -52 -181 -104 -89
-52 -182 -105 -207 -119 -24 -14 -83 -48 -131 -77 -47 -28 -92 -54 -100 -57
-8 -4 -79 -44 -158 -91 l-144 -84 -46 35 c-25 19 -77 50 -116 68 l-70 32 -1
2575 0 2574 77 37 c86 42 119 66 199 146 68 67 89 96 133 186 59 117 71 173
71 326 l1 137 35 19 c19 10 197 112 395 227 198 114 374 215 390 225 25 14
373 215 875 505 174 101 294 170 525 303 110 63 233 135 273 159 41 24 75 43
77 43 2 0 64 35 137 78 73 44 164 97 201 118 38 21 83 47 100 58 123 72 1219
703 1245 717 18 10 38 22 45 27 7 5 35 22 62 37 106 60 94 58 144 19 25 -19
76 -49 114 -66z m-1146 -2282 c16 -8 42 -29 59 -48 71 -74 89 -159 55 -250
-53 -140 -207 -201 -339 -134 -174 88 -173 342 1 433 64 33 161 32 224 -1z
m-8206 12 c51 -15 114 -70 140 -120 25 -50 31 -138 12 -193 -33 -97 -121 -158
-229 -159 -224 -2 -327 281 -155 425 66 56 148 73 232 47z m4115 -121 c37 -19
88 -71 111 -113 19 -35 26 -143 11 -187 -15 -44 -72 -112 -111 -132 -67 -34
-151 -37 -218 -8 -188 83 -191 351 -5 440 42 20 62 23 116 20 36 -2 79 -11 96
-20z m-5659 -3266 c85 -42 136 -125 136 -221 -1 -164 -153 -275 -314 -230 -50
14 -122 80 -148 135 -41 88 -17 209 57 279 67 62 182 78 269 37z m11313 3 c75
-32 128 -108 137 -200 22 -206 -232 -343 -391 -212 -61 50 -90 111 -90 187 0
182 174 296 344 225z m-7598 -328 c45 -22 95 -76 116 -125 22 -54 20 -148 -5
-196 -29 -54 -90 -110 -137 -125 -165 -53 -326 61 -326 230 0 181 187 295 352
216z m3898 -1 c37 -19 86 -69 108 -110 24 -44 23 -169 -2 -215 -76 -141 -262
-177 -378 -72 -113 102 -111 263 4 367 28 25 52 44 54 42 3 -2 25 1 51 8 51
13 114 5 163 -20z m-1978 -2931 c159 -54 211 -259 98 -387 -152 -172 -428 -57
-422 175 4 158 168 265 324 212z"/>
</g>
</svg>
